<svg width="2427" height="450" viewBox="0 0 2427 450" fill="none" xmlns="http://www.w3.org/2000/svg">
<path fill-rule="evenodd" clip-rule="evenodd" d="M0 296.463V0.0126953H154.107V45.7182H62.6958V121.462H150.203V167.18H62.6958V296.463H0ZM266.425 275.568H265.115C253.364 293.856 237.684 301.689 216.79 301.689C189.359 301.689 164.547 284.712 164.547 255.997V90.1267H222.016V233.793C222.016 252.054 225.933 265.128 244.208 265.128C262.482 265.128 266.412 252.054 266.412 233.793V90.1267H323.881V255.984C323.881 269.057 325.191 283.415 326.488 296.463H266.412L266.425 275.568ZM400.947 90.1267V116.248C411.401 92.7466 430.972 84.8998 454.486 84.8998V137.129C403.554 133.212 403.554 163.25 403.554 184.144V296.463H344.788V90.1267H400.947ZM523.693 111.021H525.003C535.457 91.4365 551.124 84.8998 573.328 84.8998C600.759 84.8998 625.571 101.877 625.571 130.605V296.463H566.805V154.119C566.805 135.832 564.185 121.462 545.91 121.462C526.313 121.462 523.706 135.819 523.706 154.119V296.463H466.237V90.1267H523.706L523.693 111.021ZM647.762 90.1267H705.231V296.463H647.762V90.1267ZM647.762 0.0126953H705.231V45.7182H647.762V0.0126953ZM713.065 90.1267H735.256V56.1718L794.022 31.3606V90.1267H824.06V125.378H794.022V236.4C794.022 252.054 794.022 262.521 812.309 262.521C816.226 262.521 820.143 262.521 822.763 261.198V296.463C814.929 297.786 807.095 299.07 792.725 299.07C743.103 299.07 735.256 265.128 735.256 253.377V125.378H713.065V90.1267ZM935.081 275.568H933.771C923.33 293.856 907.65 301.689 885.446 301.689C858.028 301.689 833.217 284.712 833.217 255.997V90.1267H891.983V233.793C891.983 252.054 894.589 265.128 912.877 265.128C931.164 265.128 935.081 252.054 935.081 233.793V90.1267H992.537V255.984C992.537 269.057 993.847 283.415 995.144 296.463H935.081V275.568ZM1077.42 90.1267V116.248H1078.73C1089.19 92.7466 1108.77 84.8998 1132.29 84.8998V137.129C1081.35 133.212 1080.04 163.25 1080.04 184.144V296.463H1022.59V90.1267H1077.42Z" fill="black"/>
<path fill-rule="evenodd" clip-rule="evenodd" d="M1188.43 202.445C1188.43 227.269 1188.43 263.818 1214.55 263.818C1235.45 263.818 1239.38 244.234 1239.38 227.269H1298.14C1296.82 249.46 1289 267.748 1275.93 280.795C1261.57 293.869 1241.98 301.69 1214.55 301.69C1140.12 301.69 1129.67 255.997 1129.67 190.694C1129.67 133.225 1137.5 84.9131 1214.55 84.9131C1292.9 84.9131 1300.75 135.845 1299.44 202.445H1188.43ZM1240.66 169.787C1240.66 150.19 1241.98 121.462 1214.54 121.462C1187.12 121.462 1188.42 152.81 1188.42 169.787H1240.66ZM1402.62 296.463V0.0129626H1512.33C1559.32 0.0129626 1598.51 14.3705 1598.51 77.0534C1598.51 111.008 1581.53 135.819 1547.57 142.356V143.666C1591.97 148.88 1603.72 177.621 1603.72 218.1C1603.72 293.843 1538.45 296.463 1512.33 296.463H1402.62ZM1463.99 250.77H1499.25C1512.33 250.77 1541.05 250.77 1541.05 208.969C1541.05 182.848 1531.91 167.18 1500.58 167.18H1464L1463.99 250.77ZM1463.99 121.462H1505.79C1518.84 121.462 1538.45 112.318 1538.45 83.5901C1538.45 61.3859 1522.77 45.7184 1501.87 45.7184H1464L1463.99 121.462ZM1671.63 90.127V116.248H1672.96C1683.4 92.7469 1702.99 84.9 1726.51 84.9V137.129C1675.56 133.212 1674.25 163.25 1674.25 184.145V296.463H1616.8V90.127H1671.63ZM1893.66 258.591C1893.66 271.665 1896.27 284.712 1897.57 296.463H1842.72L1840.11 269.058C1827.04 291.249 1810.07 301.69 1785.26 301.69C1744.76 301.69 1730.4 271.678 1730.4 235.09C1730.4 165.883 1783.95 163.263 1837.5 164.573V148.893C1837.5 130.619 1834.9 117.558 1814 117.558C1794.39 117.558 1791.79 133.225 1791.79 148.893H1735.63C1735.63 124.082 1743.47 108.414 1756.52 99.2706C1769.59 88.8299 1789.18 84.9131 1811.38 84.9131C1884.52 84.9131 1893.66 117.571 1893.66 155.443V258.591ZM1787.88 232.47C1787.88 246.828 1789.18 265.128 1808.78 265.128C1842.72 265.128 1837.5 219.41 1837.5 197.205C1808.78 198.515 1787.88 195.908 1787.88 232.47ZM1966.8 111.021H1968.1C1979.85 91.4368 1995.53 84.9 2016.44 84.9C2045.16 84.9 2068.66 101.877 2068.66 130.606V296.463H2011.17V154.12C2011.17 135.832 2007.27 121.462 1988.98 121.462C1970.69 121.462 1966.79 135.819 1966.79 154.12V296.463H1909.31V90.127H1966.79V111.021H1966.8ZM2194.02 296.463V274.272H2192.69C2182.25 293.856 2166.57 301.677 2144.38 301.677C2084.29 301.677 2085.62 235.077 2085.62 191.978C2085.62 150.177 2084.29 84.8871 2143.07 84.8871C2163.97 84.8871 2178.34 91.4109 2190.09 109.698V0H2248.85V296.45L2194.02 296.463ZM2190.09 191.991C2190.09 150.19 2191.41 121.462 2167.9 121.462C2141.77 121.462 2143.07 150.19 2143.07 191.991C2143.07 242.911 2147 265.128 2167.9 265.128C2187.48 265.128 2190.09 242.911 2190.09 191.991ZM2324.62 229.863C2323.3 240.304 2324.62 249.447 2327.23 255.984C2329.84 262.521 2336.37 265.128 2348.12 265.128C2359.87 265.128 2368.99 257.294 2368.99 244.234C2368.99 199.825 2267.13 210.279 2267.13 143.679C2267.13 99.2706 2311.54 84.9131 2349.41 84.9131C2388.59 84.9131 2423.85 104.51 2421.25 148.906H2365.09C2365.09 134.548 2362.48 126.715 2358.55 122.785C2354.62 118.868 2350.72 117.571 2344.19 117.571C2331.12 117.571 2324.61 126.715 2324.61 139.762C2324.61 172.407 2426.47 171.11 2426.47 237.71C2426.47 274.285 2396.44 301.703 2348.12 301.703C2298.48 301.703 2264.53 288.655 2267.14 229.889H2324.62V229.863ZM10.4536 361.766H28.741V446.653H10.4536V361.766ZM152.81 361.766H178.918L227.243 427.068V361.766H245.531V446.653H219.409L169.787 380.053V446.653H152.81V361.766ZM441.426 361.766V376.136H408.781V446.653H390.494V376.136H357.836V361.766H441.426ZM621.641 376.136H572.018V395.708H619.034V410.078H572.018V433.579H622.951V446.653H553.731V361.766H621.641V376.136ZM743.103 361.766H794.035C812.322 361.766 826.693 368.302 826.693 385.267C826.693 399.624 816.239 406.161 803.192 406.161V407.458C822.776 407.458 824.086 416.602 825.383 432.282C825.383 438.819 826.693 444.033 828.003 446.64H807.108C805.799 444.033 805.798 438.806 805.798 433.566C804.489 416.589 800.572 413.982 782.297 413.982H761.403V446.64H743.116L743.103 361.766ZM761.39 399.637H786.201C797.952 399.637 807.096 398.314 807.096 387.887C807.096 377.459 797.952 376.136 787.511 376.136H761.39V399.637ZM946.832 361.766H974.263L1022.58 427.068V361.766H1039.55V446.653H1013.43L963.809 380.053V446.653H946.832V361.766ZM1194.96 361.766H1218.46L1262.87 446.653H1239.36L1230.22 428.365H1180.59L1171.44 446.653H1151.86L1194.96 361.766ZM1223.7 414.008L1205.41 377.459L1188.43 414.008H1223.7ZM1449.63 361.766V376.136H1416.97V446.653H1398.69V376.136H1366.05V361.766H1449.63ZM1564.56 361.766H1582.82V446.653H1564.56V361.766ZM1752.62 359.159C1783.95 359.159 1802.24 374.813 1802.24 404.851C1802.24 434.889 1783.95 449.26 1752.62 449.26C1721.26 449.26 1703 434.902 1703 404.851C1703 374.8 1721.26 359.159 1752.62 359.159ZM1752.62 434.902C1770.88 434.902 1782.63 424.462 1782.63 404.864C1782.63 383.97 1770.88 373.529 1752.62 373.529C1734.33 373.529 1722.58 383.97 1722.58 404.864C1722.57 424.462 1734.33 434.902 1752.62 434.902ZM1919.78 361.766H1947.19L1995.51 427.068V361.766H2012.49V446.653H1987.67L1938.05 380.053H1936.75V446.653H1919.78V361.766ZM2167.9 361.766H2192.69L2235.81 446.653H2213.59L2203.15 428.365H2154.81L2145.69 446.653H2124.8L2167.9 361.766ZM2196.62 414.008L2178.34 377.459L2161.36 414.008H2196.62ZM2348.14 361.766H2366.4V433.579H2413.41V446.653H2348.14V361.766Z" fill="black"/>
</svg>
